<?xml version="1.0" encoding="UTF-8" standalone="no"?>
<svg width="20px" height="20px" viewBox="0 0 20 20" version="1.1" xmlns="http://www.w3.org/2000/svg" xmlns:xlink="http://www.w3.org/1999/xlink" xmlns:sketch="http://www.bohemiancoding.com/sketch/ns">
    <title>Slice 1</title>
    <description>Created with Sketch (http://www.bohemiancoding.com/sketch)</description>
    <defs></defs>
    <g id="Page-1" stroke="none" stroke-width="1" fill="none" fill-rule="evenodd" sketch:type="MSPage">
        <g id="active-copy" sketch:type="MSLayerGroup" transform="translate(9.413763, 10.197217) rotate(23.000000) translate(-9.413763, -10.197217) translate(0.171147, 0.243630)" fill="#000000">
            <g id="Page-1" transform="translate(0.000000, 0.000000)" sketch:type="MSShapeGroup">
                <g id="Prickar+utropstecken" transform="translate(6.667145, 0.668634)">
                    <path d="M0.287232067,18.7226962 L3.79112028,4.88152324 C5.1692155,0.185280807 4.7253117,0.700253543 7.79044746,0.695527463 C7.79044746,0.695527463 9.24949298,0.599881329 7.79044746,4.32674441 L2.34335865,18.7226962 L0.287232067,18.7226962 Z" id="Shape"></path>
                </g>
                <g id="Prickar+utropstecken-copy" transform="translate(9.511027, 9.911250) scale(-1, 1) rotate(45.000000) translate(-9.511027, -9.911250) translate(5.245205, 0.668634)">
                    <path d="M0.287232067,18.7226962 L3.79112028,4.88152324 C5.1692155,0.185280807 4.7253117,0.700253543 7.79044746,0.695527463 C7.79044746,0.695527463 9.24949298,0.599881329 7.79044746,4.32674441 L2.34335865,18.7226962 L0.287232067,18.7226962 Z" id="Shape"></path>
                </g>
            </g>
        </g>
    </g>
</svg>